<?xml version="1.0" encoding="utf-8"?>
<!-- Generator: Adobe Illustrator 26.4.1, SVG Export Plug-In . SVG Version: 6.00 Build 0)  -->
<svg version="1.1" id="Layer_1" xmlns="http://www.w3.org/2000/svg" xmlns:xlink="http://www.w3.org/1999/xlink" x="0px" y="0px"
	 viewBox="0 0 663.9 400" style="enable-background:new 0 0 663.9 400;" xml:space="preserve">
<style type="text/css">
	.st0{fill:#1C1C1C;stroke:#1A65B7;stroke-width:3;stroke-miterlimit:10;}
	.st1{fill:#064375;}
	.st2{fill:#1C94B5;}
	.st3{fill:#FFFFFF;}
	.st4{font-family:'ArialMT';}
	.st5{font-size:10px;}
	.st6{fill:none;stroke:#BCBCBC;stroke-miterlimit:10;}
	.st7{fill:#BCBCBC;}
	.st8{fill:#1A65B7;}
	.st9{font-size:11.0826px;}
</style>
<g id="Layer_2_00000047059572825311614860000012175604207589734813_">
	<g id="Layer_2_00000080900547900737573010000013098920555182204041_">
		<rect y="0" width="663.9" height="400"/>
	</g>
</g>
<g id="Layer_1_00000075881142777743596040000015395909653823894186_">
	<g id="Layer_3">
		<path class="st0" d="M271.3,379.6V22c0-2.6,1.6-4.6,3.5-4.6h142.6c1.9,0,3.5,2.1,3.5,4.6v357.5c0,2.6-1.6,4.6-3.5,4.6H274.8
			C272.8,384.2,271.3,382.1,271.3,379.6z"/>
	</g>
	<path class="st1" d="M112.2,169.1H186c3.3,0,6.1,2.7,6.1,6.1v52.2c0,3.3-2.7,6.1-6.1,6.1h-73.8c-3.3,0-6.1-2.7-6.1-6.1v-52.2
		C106.1,171.8,108.8,169.1,112.2,169.1z"/>
	<ellipse class="st2" cx="49.1" cy="202.6" rx="10.3" ry="9.9"/>
	<text transform="matrix(1.0386 0 0 1 31.7993 184.4758)" class="st3 st4 st5">readers</text>
	<line class="st6" x1="63" y1="201.5" x2="105.3" y2="201.5"/>
	<polygon class="st7" points="98.3,197.2 98.3,205.7 106.1,201.5 	"/>
	<polygon class="st7" points="296.6,78 296.6,86.5 304.4,82.3 	"/>
	<path class="st8" d="M310.5,50.1h73.8c3.3,0,6.1,2.7,6.1,6.1v52.2c0,3.3-2.7,6.1-6.1,6.1h-73.8c-3.3,0-6.1-2.7-6.1-6.1V56.2
		C304.4,52.8,307.1,50.1,310.5,50.1z"/>
	<path class="st8" d="M310.5,129.9h73.8c3.3,0,6.1,2.7,6.1,6.1v52.2c0,3.3-2.7,6.1-6.1,6.1h-73.8c-3.3,0-6.1-2.7-6.1-6.1V136
		C304.4,132.6,307.1,129.9,310.5,129.9z"/>
	<path class="st8" d="M310.5,209.7h73.8c3.3,0,6.1,2.7,6.1,6.1V268c0,3.3-2.7,6.1-6.1,6.1h-73.8c-3.3,0-6.1-2.7-6.1-6.1v-52.2
		C304.4,212.4,307.1,209.7,310.5,209.7z"/>
	<path class="st8" d="M310.5,289.5h73.8c3.3,0,6.1,2.7,6.1,6.1v52.2c0,3.3-2.7,6.1-6.1,6.1h-73.8c-3.3,0-6.1-2.7-6.1-6.1v-52.2
		C304.4,292.2,307.1,289.5,310.5,289.5z"/>
	<path class="st1" d="M514,175.5h73.8c3.3,0,6.1,2.7,6.1,6.1v52.2c0,3.3-2.7,6.1-6.1,6.1H514c-3.3,0-6.1-2.7-6.1-6.1v-52.2
		C507.9,178.2,510.6,175.5,514,175.5z"/>
	<polyline class="st6" points="192.1,186.1 231.8,186.1 231.8,82.3 304.4,82.3 	"/>
	<polyline class="st6" points="192.1,200.6 248.2,200.6 248.2,162.1 304.4,162.1 	"/>
	<polyline class="st6" points="192.1,213.4 248.2,213.4 248.2,241.9 304.4,241.9 	"/>
	<polyline class="st6" points="192.1,225.4 229.8,225.4 229.8,321.7 304.4,321.7 	"/>
	<polygon class="st7" points="296.6,157.8 296.6,166.3 304.4,162.1 	"/>
	<polygon class="st7" points="296.6,237.7 296.6,246.2 304.4,242 	"/>
	<polygon class="st7" points="296.6,317.5 296.6,326 304.4,321.8 	"/>
	<text transform="matrix(1.0386 0 0 1 313.0957 33.9465)" class="st3 st4 st9">read replicas</text>
	<text transform="matrix(1.0386 0 0 1 344.7495 85.5173)" class="st3 st4 st9">1</text>
	<text transform="matrix(1.0386 0 0 1 345.8306 165.0739)" class="st3 st4 st9">2</text>
	<text transform="matrix(1.0386 0 0 1 344.2344 246.1647)" class="st3 st4 st9">...</text>
	<text transform="matrix(1.0386 0 0 1 347.4639 325.9875)" class="st3 st4 st9">N</text>
	<polyline class="st6" points="390.4,82.3 483.4,82.3 483.4,186.1 507.9,186.1 	"/>
	<polyline class="st6" points="390.4,162.1 459.2,162.1 459.2,199.3 507.9,199.3 	"/>
	<polyline class="st6" points="390.4,246.3 458.2,246.3 458.2,213.4 507.9,213.4 	"/>
	<polyline class="st6" points="390.4,323.6 483.4,323.6 483.4,225.4 507.9,225.4 	"/>
	<text transform="matrix(1.0386 0 0 1 137.2617 195.9997)" class="st3 st4 st9">load</text>
	<text transform="matrix(1.0386 0 0 1 126.0449 209.3)" class="st3 st4 st9">balancer</text>
	<text transform="matrix(1.0386 0 0 1 536.8027 209.4211)" class="st3 st4 st9">origin</text>
</g>
<polygon class="st7" points="500.1,181.9 500.1,190.4 507.9,186.1 "/>
<polygon class="st7" points="500.1,195.1 500.1,203.6 507.9,199.3 "/>
<polygon class="st7" points="500.1,209.1 500.1,217.6 507.9,213.4 "/>
<polygon class="st7" points="500.1,221.1 500.1,229.6 507.9,225.4 "/>
</svg>
